<?xml version="1.0" standalone="no"?>
<!DOCTYPE svg PUBLIC "-//W3C//DTD SVG 20010904//EN"
 "http://www.w3.org/TR/2001/REC-SVG-20010904/DTD/svg10.dtd">
<svg version="1.0" xmlns="http://www.w3.org/2000/svg"
 width="184.000000pt" height="273.000000pt" viewBox="0 0 184.000000 273.000000"
 preserveAspectRatio="xMidYMid meet">

<g transform="translate(0.000000,273.000000) scale(0.100000,-0.100000)"
fill="#000000" stroke="none">
<path d="M1377 2649 c7 -7 15 -10 18 -7 3 3 -2 9 -12 12 -14 6 -15 5 -6 -5z"/>
<path d="M1405 2620 c3 -5 8 -10 11 -10 2 0 4 5 4 10 0 6 -5 10 -11 10 -5 0
-7 -4 -4 -10z"/>
<path d="M1481 2470 c0 -8 4 -24 9 -35 5 -13 9 -14 9 -5 0 8 -4 24 -9 35 -5
13 -9 14 -9 5z"/>
<path d="M1094 2427 c-31 -27 -28 -57 5 -57 11 0 25 -10 32 -21 11 -21 10 -22
-32 -15 -107 15 -209 19 -223 7 -15 -13 -86 -217 -86 -249 0 -44 19 -52 195
-76 178 -25 511 -66 532 -66 6 0 14 -15 16 -32 l4 -33 1 34 c2 27 5 32 19 26
10 -3 45 -9 78 -12 l60 -5 29 93 c37 121 46 219 21 239 -11 9 -59 19 -124 25
l-106 10 -6 45 -6 45 -1 -42 c-2 -50 11 -48 -165 -31 l-128 12 -14 32 c-7 18
-11 42 -8 54 11 43 -50 54 -93 17z m71 -7 c3 -6 -6 -15 -20 -20 -34 -13 -55
-13 -55 1 0 5 4 8 9 5 5 -3 11 1 15 9 6 17 42 20 51 5z m20 -82 c29 -73 28
-75 -8 -23 -19 28 -33 53 -30 58 10 16 22 5 38 -35z m-96 -22 c79 -15 94 -27
84 -66 l-6 -25 23 20 c13 11 20 14 15 6 -5 -9 -3 -12 6 -9 8 3 13 10 12 15 -1
6 9 8 22 5 18 -3 25 0 25 11 0 10 -6 13 -20 10 -12 -3 -20 0 -20 7 0 9 14 11
53 7 28 -4 117 -12 197 -18 80 -6 146 -15 148 -18 1 -4 22 -5 47 -4 44 3 45 2
45 -28 0 -16 -7 -61 -16 -100 -15 -67 -16 -69 -42 -63 -15 4 -29 7 -32 7 -3 1
-33 -2 -67 -6 -92 -11 -80 -29 15 -22 92 7 112 -1 94 -39 -11 -24 -15 -26 -54
-20 -24 3 -50 8 -58 11 -8 2 -50 6 -94 8 -43 2 -110 8 -150 14 -39 5 -114 15
-166 21 -283 36 -335 46 -338 64 -4 19 17 91 50 174 l22 52 65 0 c36 0 99 -6
140 -14z"/>
<path d="M1025 2300 c3 -5 8 -10 11 -10 2 0 4 5 4 10 0 6 -5 10 -11 10 -5 0
-7 -4 -4 -10z"/>
<path d="M880 2270 c0 -8 81 -16 112 -11 4 0 31 -5 60 -13 71 -19 70 -19 92
-17 22 1 17 10 -10 16 -11 3 -44 12 -74 20 -61 17 -180 20 -180 5z"/>
<path d="M1420 2256 c0 -2 7 -6 15 -10 8 -3 15 -1 15 4 0 6 -7 10 -15 10 -8 0
-15 -2 -15 -4z"/>
<path d="M1232 2240 c-26 -11 -21 -32 6 -24 11 4 8 -2 -8 -15 -14 -11 -20 -21
-14 -21 16 0 45 35 37 44 -5 5 2 6 14 4 12 -1 23 2 25 7 4 14 -32 16 -60 5z"/>
<path d="M1333 2227 c4 -12 24 -15 109 -20 32 -1 59 1 61 6 1 4 15 3 30 -2 16
-6 39 -11 51 -11 28 0 55 -26 34 -33 -7 -2 1 -2 17 1 36 5 45 10 45 23 0 6 -5
7 -10 4 -6 -4 -18 -1 -26 6 -22 18 -96 30 -212 33 -67 2 -101 -1 -99 -7z"/>
<path d="M1050 2219 c-9 -6 -44 -7 -87 -4 -88 8 -102 -10 -15 -20 31 -3 71 -8
89 -11 17 -2 34 0 38 6 3 5 -2 10 -12 10 -17 1 -17 2 1 15 22 17 9 20 -14 4z"/>
<path d="M1135 2210 c-3 -5 -2 -10 4 -10 5 0 13 5 16 10 3 6 2 10 -4 10 -5 0
-13 -4 -16 -10z"/>
<path d="M836 2157 c3 -10 9 -15 12 -12 3 3 0 11 -7 18 -10 9 -11 8 -5 -6z"/>
<path d="M1663 2151 c39 -15 -8 -29 -113 -34 -100 -5 -223 9 -201 22 5 4 -11
6 -37 6 -34 -1 -47 -5 -47 -16 0 -8 8 -13 21 -11 11 1 49 -4 84 -12 93 -22
278 -11 303 17 23 27 22 37 -5 36 -20 0 -21 -1 -5 -8z"/>
<path d="M1578 2143 c7 -3 16 -2 19 1 4 3 -2 6 -13 5 -11 0 -14 -3 -6 -6z"/>
<path d="M1528 2133 c7 -3 16 -2 19 1 4 3 -2 6 -13 5 -11 0 -14 -3 -6 -6z"/>
<path d="M938 2083 c7 -3 16 -2 19 1 4 3 -2 6 -13 5 -11 0 -14 -3 -6 -6z"/>
<path d="M1588 2083 c7 -3 16 -2 19 1 4 3 -2 6 -13 5 -11 0 -14 -3 -6 -6z"/>
<path d="M1208 2073 c7 -3 16 -2 19 1 4 3 -2 6 -13 5 -11 0 -14 -3 -6 -6z"/>
<path d="M1488 2073 c7 -3 16 -2 19 1 4 3 -2 6 -13 5 -11 0 -14 -3 -6 -6z"/>
<path d="M1618 2033 c7 -3 16 -2 19 1 4 3 -2 6 -13 5 -11 0 -14 -3 -6 -6z"/>
<path d="M1488 2023 c7 -3 16 -2 19 1 4 3 -2 6 -13 5 -11 0 -14 -3 -6 -6z"/>
<path d="M1548 2023 c7 -3 16 -2 19 1 4 3 -2 6 -13 5 -11 0 -14 -3 -6 -6z"/>
<path d="M1620 2016 c0 -2 7 -7 16 -10 8 -3 12 -2 9 4 -6 10 -25 14 -25 6z"/>
<path d="M1053 1979 c-5 -5 -26 -12 -47 -16 -30 -7 -44 -17 -59 -42 -17 -31
-17 -35 -2 -43 14 -8 12 -14 -14 -44 -38 -43 -65 -132 -56 -182 4 -20 16 -49
27 -64 16 -24 26 -28 66 -28 26 1 58 7 70 14 21 11 27 10 51 -15 25 -24 35
-27 81 -25 48 2 57 6 87 41 44 51 69 133 55 183 -5 21 -13 45 -17 56 -7 16 -5
17 23 11 29 -6 32 -4 32 18 0 25 -91 117 -116 117 -23 0 -21 -45 3 -72 15 -17
13 -18 -30 -16 -25 1 -57 -4 -70 -11 -23 -12 -29 -11 -53 8 -15 11 -33 21 -40
21 -23 0 -4 27 27 40 16 7 29 20 29 30 0 19 -33 33 -47 19z m7 -121 c19 -13
33 -26 31 -30 -1 -4 -11 -28 -22 -54 -14 -31 -21 -66 -20 -109 0 -38 -5 -67
-12 -73 -39 -30 -117 -17 -135 24 -34 74 9 212 78 246 44 22 40 22 80 -4z
m197 -20 c61 -50 55 -183 -11 -253 -29 -30 -40 -35 -78 -35 -51 0 -93 30 -104
75 -20 81 25 201 84 224 33 12 88 7 109 -11z"/>
<path d="M942 1748 c-18 -18 -14 -56 7 -67 34 -19 67 39 39 67 -7 7 -17 12
-23 12 -6 0 -16 -5 -23 -12z"/>
<path d="M1106 1718 c-20 -28 -20 -33 0 -52 23 -23 53 -20 65 8 24 52 -33 90
-65 44z"/>
<path d="M221 1855 c-28 -19 -55 -35 -61 -35 -6 0 -29 10 -50 23 -47 26 -66
19 -93 -36 -22 -43 -17 -98 13 -137 27 -36 90 -34 129 4 27 26 33 27 62 17 46
-16 106 -14 135 5 23 16 26 16 38 -1 14 -20 36 -13 36 12 0 12 3 13 15 3 8 -6
19 -10 24 -8 6 1 -5 14 -24 27 -32 21 -37 22 -53 9 -45 -40 -73 -47 -145 -33
-52 10 -69 10 -75 1 -8 -14 -53 -46 -64 -46 -4 0 0 17 8 37 11 24 14 51 10 78
-7 42 -7 42 23 37 22 -3 41 4 73 27 24 17 57 33 74 37 45 9 97 -19 118 -62 9
-20 30 -47 46 -61 17 -14 30 -31 30 -39 0 -8 5 -14 10 -14 20 0 9 22 -31 63
-22 23 -47 55 -55 73 -31 65 -114 73 -193 19z m-124 -36 c26 -51 9 -154 -25
-147 -10 2 -16 11 -14 23 2 17 1 17 -8 5 -9 -13 -11 -13 -20 0 -18 28 -12 96
13 124 26 30 37 29 54 -5z m323 -93 c0 -3 -4 -8 -10 -11 -5 -3 -10 -1 -10 4 0
6 5 11 10 11 6 0 10 -2 10 -4z"/>
<path d="M34 1799 c-3 -6 -1 -16 5 -22 9 -9 10 -7 5 7 -6 15 -4 17 6 11 9 -5
11 -4 6 3 -9 15 -13 15 -22 1z"/>
<path d="M1542 1700 c0 -19 2 -27 5 -17 2 9 2 25 0 35 -3 9 -5 1 -5 -18z"/>
<path d="M1552 1615 c0 -16 2 -22 5 -12 2 9 2 23 0 30 -3 6 -5 -1 -5 -18z"/>
<path d="M332 1600 c0 -14 2 -19 5 -12 2 6 2 18 0 25 -3 6 -5 1 -5 -13z"/>
<path d="M251 1594 c0 -11 3 -14 6 -6 3 7 2 16 -1 19 -3 4 -6 -2 -5 -13z"/>
<path d="M1561 1554 c0 -11 3 -14 6 -6 3 7 2 16 -1 19 -3 4 -6 -2 -5 -13z"/>
<path d="M250 1541 c0 -5 -10 -12 -22 -14 -17 -3 -14 -5 9 -6 25 -1 31 2 27
14 -7 17 -14 20 -14 6z"/>
<path d="M315 1509 c-11 -16 -1 -19 13 -3 7 8 8 14 3 14 -5 0 -13 -5 -16 -11z"/>
<path d="M824 1479 c-5 -8 18 -14 40 -10 20 4 206 -20 276 -36 41 -9 94 -25
118 -35 54 -22 69 -23 52 -3 -39 47 -463 121 -486 84z"/>
<path d="M1572 1475 c0 -11 3 -29 8 -40 11 -25 11 1 0 35 -6 20 -8 21 -8 5z"/>
<path d="M790 1455 c0 -8 4 -15 10 -15 5 0 7 7 4 15 -4 8 -8 15 -10 15 -2 0
-4 -7 -4 -15z"/>
<path d="M250 1431 c0 -11 4 -22 9 -25 4 -3 6 6 3 19 -5 30 -12 33 -12 6z"/>
<path d="M451 1404 c0 -11 3 -14 6 -6 3 7 2 16 -1 19 -3 4 -6 -2 -5 -13z"/>
<path d="M285 1380 c3 -5 8 -10 11 -10 2 0 4 5 4 10 0 6 -5 10 -11 10 -5 0 -7
-4 -4 -10z"/>
<path d="M340 1380 l-35 -7 37 -2 c29 -1 37 -5 41 -23 3 -14 4 -10 4 10 -1 17
-4 31 -7 31 -3 -1 -21 -5 -40 -9z"/>
<path d="M791 1376 c-7 -8 -8 -17 -3 -20 6 -3 13 1 16 10 9 23 2 28 -13 10z"/>
<path d="M460 1361 c0 -6 4 -13 10 -16 6 -3 7 1 4 9 -7 18 -14 21 -14 7z"/>
<path d="M110 1331 c0 -6 4 -13 10 -16 6 -3 7 1 4 9 -7 18 -14 21 -14 7z"/>
<path d="M678 1333 c6 -2 18 -2 25 0 6 3 1 5 -13 5 -14 0 -19 -2 -12 -5z"/>
<path d="M553 1323 c20 -2 54 -2 75 0 20 2 3 4 -38 4 -41 0 -58 -2 -37 -4z"/>
<path d="M1562 1310 c0 -14 2 -19 5 -12 2 6 2 18 0 25 -3 6 -5 1 -5 -13z"/>
<path d="M366 1293 c-6 -14 -5 -15 5 -6 7 7 10 15 7 18 -3 3 -9 -2 -12 -12z"/>
<path d="M130 1296 c0 -2 8 -10 18 -17 15 -13 16 -12 3 4 -13 16 -21 21 -21
13z"/>
<path d="M1571 1249 c1 -19 5 -45 9 -59 6 -16 7 -6 3 30 -7 63 -13 80 -12 29z"/>
<path d="M190 1240 c8 -5 20 -10 25 -10 6 0 3 5 -5 10 -8 5 -19 10 -25 10 -5
0 -3 -5 5 -10z"/>
<path d="M248 1223 c6 -2 18 -2 25 0 6 3 1 5 -13 5 -14 0 -19 -2 -12 -5z"/>
<path d="M322 1205 c0 -16 2 -22 5 -12 2 9 2 23 0 30 -3 6 -5 -1 -5 -18z"/>
<path d="M1661 1204 c0 -11 3 -14 6 -6 3 7 2 16 -1 19 -3 4 -6 -2 -5 -13z"/>
<path d="M323 1110 c0 -36 2 -50 4 -32 2 17 2 47 0 65 -2 17 -4 3 -4 -33z"/>
<path d="M234 1095 c1 -46 5 -60 16 -61 8 0 10 1 3 3 -7 3 -14 29 -16 61 l-3
57 0 -60z"/>
<path d="M1691 1084 c0 -11 3 -14 6 -6 3 7 2 16 -1 19 -3 4 -6 -2 -5 -13z"/>
<path d="M350 1046 c0 -2 8 -10 18 -17 15 -13 16 -12 3 4 -13 16 -21 21 -21
13z"/>
<path d="M1602 1030 c0 -14 2 -19 5 -12 2 6 2 18 0 25 -3 6 -5 1 -5 -13z"/>
<path d="M1701 1034 c0 -11 3 -14 6 -6 3 7 2 16 -1 19 -3 4 -6 -2 -5 -13z"/>
<path d="M308 1033 c7 -3 16 -2 19 1 4 3 -2 6 -13 5 -11 0 -14 -3 -6 -6z"/>
<path d="M460 993 c8 -3 19 -11 23 -17 6 -7 7 -6 4 4 -2 8 -12 16 -23 17 -13
2 -15 1 -4 -4z"/>
<path d="M1338 973 c5 -21 7 -23 10 -9 2 10 0 22 -6 28 -6 6 -7 0 -4 -19z"/>
<path d="M1613 955 c0 -22 2 -30 4 -17 2 12 2 30 0 40 -3 9 -5 -1 -4 -23z"/>
<path d="M1711 903 c-1 -35 -7 -46 -34 -67 -19 -15 -37 -26 -40 -26 -3 0 -8
21 -10 48 -3 39 -4 37 -4 -15 0 -60 1 -62 21 -51 12 6 36 24 54 41 28 28 32
29 32 11 0 -20 -42 -66 -90 -97 -17 -12 -20 -17 -9 -17 17 0 66 34 85 59 9 12
12 8 16 -20 10 -65 -2 -143 -31 -204 -36 -76 -61 -101 -171 -175 l-89 -60 -6
30 c-11 51 -68 75 -116 50 -11 -6 -31 -29 -44 -50 -28 -44 -50 -51 -60 -20 -8
26 -55 70 -75 70 -30 0 -61 -30 -55 -53 2 -12 2 -16 -1 -9 -9 19 -20 15 -32
-13 -11 -23 -13 -24 -44 -11 -45 19 -131 29 -168 21 -48 -11 -26 -19 53 -21
83 -2 117 -13 157 -51 27 -27 60 -104 60 -142 0 -14 -7 -17 -32 -14 l-33 4 32
-15 32 -15 248 166 c136 91 267 183 289 205 23 22 55 65 70 96 27 53 29 66 31
185 1 95 -2 130 -12 140 -7 8 -15 25 -18 38 -3 15 -5 8 -6 -18z m-326 -503 c3
-5 2 -10 -4 -10 -5 0 -13 5 -16 10 -3 6 -2 10 4 10 5 0 13 -4 16 -10z m-210
-30 c3 -6 -1 -7 -9 -4 -18 7 -21 14 -7 14 6 0 13 -4 16 -10z m176 -43 c-10 -9
-11 -8 -5 6 3 10 9 15 12 12 3 -3 0 -11 -7 -18z m66 8 c0 -8 -6 -16 -14 -19
-15 -6 -13 15 2 26 6 4 10 8 11 8 0 0 1 -7 1 -15z m-310 -10 c0 -8 -4 -12 -9
-9 -5 3 -6 10 -3 15 9 13 12 11 12 -6z m183 -5 c0 -5 -2 -10 -4 -10 -3 0 -8 5
-11 10 -3 6 -1 10 4 10 6 0 11 -4 11 -10z m10 -65 c0 -8 -4 -15 -8 -15 -5 0
-9 7 -9 15 0 8 4 15 9 15 4 0 8 -7 8 -15z m-40 -35 c0 -5 -2 -10 -4 -10 -3 0
-8 5 -11 10 -3 6 -1 10 4 10 6 0 11 -4 11 -10z m-20 -14 c0 -3 -4 -8 -10 -11
-5 -3 -10 -1 -10 4 0 6 5 11 10 11 6 0 10 -2 10 -4z m-70 -50 c0 -3 -4 -8 -10
-11 -5 -3 -10 -1 -10 4 0 6 5 11 10 11 6 0 10 -2 10 -4z"/>
<path d="M462 897 c-14 -16 -20 -48 -21 -104 l-1 -43 -85 0 c-58 0 -96 -5
-115 -15 -27 -14 -30 -20 -30 -66 0 -36 4 -49 13 -46 6 2 10 11 8 18 -22 77
-7 88 116 89 l92 0 7 -45 c3 -25 10 -45 15 -45 11 0 11 0 -2 77 -13 72 -7 102
15 84 10 -9 12 -20 6 -40 -10 -36 2 -57 51 -81 44 -23 45 -24 24 -74 -14 -32
-14 -40 -1 -65 19 -36 92 -71 164 -78 62 -7 82 8 82 59 0 37 23 45 56 19 15
-12 34 -21 44 -21 22 0 70 47 82 81 l9 26 174 6 c99 3 183 11 195 17 31 17 22
19 -40 9 -142 -20 -401 -6 -565 31 -158 35 -295 116 -295 174 0 19 3 17 25
-11 58 -73 220 -131 432 -154 106 -11 401 -8 435 6 11 4 18 1 20 -12 3 -10 4
20 4 67 0 57 -1 66 -3 28 -4 -53 -6 -59 -31 -65 -47 -14 -431 -9 -512 6 -171
31 -301 89 -339 151 -15 25 -20 28 -29 17z m312 -235 c2 -4 -7 -8 -20 -8 -13
-1 -24 1 -24 5 0 9 38 12 44 3z m-177 -34 c-3 -8 -6 -5 -6 6 -1 11 2 17 5 13
3 -3 4 -12 1 -19z m373 -32 c0 -3 -4 -8 -10 -11 -5 -3 -10 -1 -10 4 0 6 5 11
10 11 6 0 10 -2 10 -4z m-64 -54 c-10 -2 -22 0 -28 6 -6 6 0 7 19 4 21 -5 23
-7 9 -10z m-146 -6 c0 -3 -4 -8 -10 -11 -5 -3 -10 -1 -10 4 0 6 5 11 10 11 6
0 10 -2 10 -4z m30 -6 c0 -5 -4 -10 -10 -10 -5 0 -10 5 -10 10 0 6 5 10 10 10
6 0 10 -4 10 -10z"/>
<path d="M1356 885 c8 -37 14 -45 14 -19 0 10 -5 26 -10 34 -8 11 -9 7 -4 -15z"/>
<path d="M690 867 c-28 -14 -39 -55 -18 -68 18 -12 31 -11 52 4 17 13 17 14 1
30 -14 15 -15 17 -1 17 9 0 16 7 16 15 0 18 -17 19 -50 2z"/>
<path d="M230 682 c0 -4 12 -15 28 -24 65 -39 112 -121 112 -198 0 -33 -5 -42
-27 -54 -18 -10 -22 -15 -12 -16 9 0 22 -7 29 -16 18 -21 77 -10 162 30 l66
32 28 -23 c15 -12 56 -30 91 -40 44 -12 63 -23 63 -34 0 -19 34 -52 44 -42 4
4 -3 14 -14 23 l-22 16 26 31 c31 37 83 63 156 79 41 9 50 13 36 19 -25 11
-113 -18 -167 -55 -24 -16 -57 -30 -74 -30 -43 0 -146 52 -177 89 -34 39 -43
40 -23 1 l15 -30 -37 -16 c-144 -61 -148 -61 -149 29 0 100 -45 186 -116 223
-31 16 -38 17 -38 6z"/>
<path d="M149 583 c-13 -16 -12 -17 4 -4 9 7 17 15 17 17 0 8 -8 3 -21 -13z"/>
<path d="M173 373 c15 -2 37 -2 50 0 12 2 0 4 -28 4 -27 0 -38 -2 -22 -4z"/>
<path d="M766 235 c-9 -26 -7 -32 5 -12 6 10 9 21 6 23 -2 3 -7 -2 -11 -11z"/>
<path d="M752 130 c0 -14 2 -19 5 -12 2 6 2 18 0 25 -3 6 -5 1 -5 -13z"/>
<path d="M1000 100 c-18 -12 -2 -12 25 0 13 6 15 9 5 9 -8 0 -22 -4 -30 -9z"/>
<path d="M799 67 c5 -5 26 -7 47 -5 l39 3 -47 5 c-26 3 -43 1 -39 -3z"/>
<path d="M898 63 c6 -2 18 -2 25 0 6 3 1 5 -13 5 -14 0 -19 -2 -12 -5z"/>
</g>
</svg>
