<svg version="1.1" id="Layer_1" xmlns="http://www.w3.org/2000/svg" xmlns:xlink="http://www.w3.org/1999/xlink" x="0px" y="0px"
	 width="100%" viewBox="0 0 592 400" enable-background="new 0 0 592 400" xml:space="preserve">
<path fill="#000000" opacity="1.000000" stroke="none" 
	d="
M593.000000,367.600006 
	C583.410645,371.755981 573.891663,375.705017 564.219543,379.234100 
	C524.575439,393.699188 483.615479,399.760254 441.540436,396.958801 
	C395.647552,393.903198 352.298492,381.117340 310.822754,361.428253 
	C287.321350,350.271790 265.622314,335.796265 242.083160,324.747406 
	C239.565735,323.565826 237.023636,322.436829 234.762482,321.406250 
	C232.740601,322.786682 233.229324,324.400543 233.145981,325.834991 
	C232.590637,335.392578 221.397003,343.166931 212.199539,340.371704 
	C206.825577,338.738525 204.686768,334.163239 206.896088,329.026764 
	C209.820999,322.226654 218.397263,318.374146 228.483200,319.555939 
	C227.666275,317.713196 226.066559,317.282288 224.687683,316.705566 
	C204.861679,308.412964 184.690033,301.138733 163.908310,295.559052 
	C126.525726,285.522156 88.447296,280.584961 49.814964,279.446838 
	C45.593063,279.322449 43.837242,280.250122 44.750252,285.159149 
	C45.740349,290.482635 46.468075,296.050720 45.265083,301.510376 
	C42.440960,314.327454 29.361769,319.813568 19.150827,312.539886 
	C13.171750,308.280731 13.285008,298.161377 19.358059,294.022430 
	C22.894363,291.612335 28.372578,292.210846 31.268944,295.323761 
	C34.680374,298.990265 34.933365,304.320679 31.687265,308.037292 
	C30.506142,309.389587 28.929987,310.396851 27.541731,311.555176 
	C32.507927,313.670380 39.431515,309.383087 41.528561,303.023376 
	C43.823254,296.064209 42.028305,289.155029 41.420044,282.240143 
	C41.245968,280.261169 39.760124,279.837769 37.760212,279.854767 
	C25.784775,279.956696 13.813727,280.050232 1.437761,281.073120 
	C1.000000,280.250000 1.000000,279.500000 1.459309,278.307556 
	C7.700167,277.464020 13.600234,278.117767 19.685619,276.240967 
	C16.515261,273.692780 13.241774,271.998505 11.500381,268.909363 
	C9.009078,264.489868 5.528736,263.537994 1.000000,265.000000 
	C1.000000,263.933319 1.000000,262.866669 1.314276,261.519012 
	C3.067235,261.626434 4.504407,261.998749 6.029453,260.700439 
	C5.656689,257.107513 4.455065,253.507874 4.531030,249.712921 
	C4.579117,247.310669 2.796550,247.318954 1.000000,248.000000 
	C1.000000,247.250000 1.000000,246.500000 1.372132,245.325500 
	C3.307837,244.783966 4.928835,244.376389 5.218553,242.682724 
	C5.968425,238.298965 7.970623,234.324738 9.618397,229.228439 
	C6.309782,229.908539 3.654891,230.454269 1.000000,231.000000 
	C1.000000,229.933334 1.000000,228.866653 1.327514,227.478119 
	C15.960320,228.064224 20.565331,215.534409 28.808851,207.886795 
	C19.169771,208.361603 10.117972,210.853699 1.000000,213.000000 
	C1.000000,211.933334 1.000000,210.866653 1.000000,209.399994 
	C9.638904,208.302734 17.918570,205.701355 26.398579,204.155121 
	C29.224747,203.639801 28.396177,201.216034 28.156357,199.248688 
	C26.789568,188.036301 28.795446,177.654800 36.066910,168.713364 
	C38.814919,165.334244 42.210690,161.235138 46.623402,162.289291 
	C50.930038,163.318115 51.445740,168.662521 52.298660,172.657593 
	C54.234112,181.723251 53.930035,190.771240 50.851231,199.785980 
	C56.032703,200.126694 60.735073,198.868515 65.507301,198.454285 
	C66.999275,198.324783 68.296288,197.692169 69.242874,196.281189 
	C74.057594,189.104355 80.446457,186.508087 87.055725,191.439667 
	C94.046593,196.656006 101.135101,195.850006 108.611839,195.775253 
	C161.570053,195.245697 213.016113,203.931839 263.159882,220.866882 
	C293.223083,231.020096 324.013977,237.895477 355.678284,240.847824 
	C363.646484,241.590790 371.654907,241.420288 379.588074,242.506470 
	C382.948029,242.966507 386.125458,242.304016 389.302643,240.939163 
	C397.259277,237.521225 405.321716,234.347870 413.365967,231.137222 
	C414.862427,230.539948 416.273987,229.407883 418.186707,229.972977 
	C419.958221,231.718903 419.232300,234.021805 419.166565,236.059235 
	C419.039093,240.014145 420.994720,240.962128 424.479553,240.510880 
	C444.829865,237.875717 464.853882,233.792267 484.360413,227.319550 
	C524.798523,213.901230 560.619690,192.566666 592.728333,164.191208 
	C593.000000,165.388885 593.000000,166.777786 592.688965,168.717484 
	C591.553772,169.820724 590.666687,170.298828 589.914856,170.936462 
	C571.844727,186.260590 552.380371,199.531799 531.518921,210.767700 
	C527.987000,212.669983 524.005859,213.808517 520.676331,216.632263 
	C541.004883,223.046051 542.274780,224.283707 548.492615,244.039200 
	C553.446106,241.220291 558.403503,238.675812 563.074341,235.684067 
	C573.127747,229.244751 583.033691,222.575287 593.000000,216.000000 
	C593.000000,217.066666 593.000000,218.133347 592.662109,219.686005 
	C586.490540,224.179901 580.656738,228.187820 574.259338,232.582962 
	C580.717651,240.308243 586.858826,247.654114 593.000000,255.000000 
	C593.000000,255.000000 593.000000,255.500000 592.731201,255.947388 
	C588.789978,259.744476 586.548767,263.846588 585.260559,268.724762 
	C588.883301,269.359833 590.336304,266.156006 593.000000,266.000000 
	C593.000000,267.388885 593.000000,268.777802 592.721680,270.507996 
	C584.931458,273.088318 584.338745,274.568726 588.679504,280.709412 
	C589.990662,282.564178 591.552856,284.241425 593.000000,286.000000 
	C593.000000,287.388885 593.000000,288.777802 592.673218,290.408173 
	C591.601990,290.282074 590.890564,289.706879 590.107544,289.582611 
	C586.629700,289.030762 582.891541,288.293243 580.463867,291.700714 
	C577.966370,295.206116 581.125732,297.477386 582.893311,299.959839 
	C583.714233,301.112762 585.228577,302.124054 583.282288,304.067413 
	C579.256836,302.012146 576.670471,298.443207 574.000000,294.910095 
	C570.989746,290.927368 570.809692,286.633759 572.727112,281.904541 
	C565.212952,285.612762 558.278564,289.248993 551.148743,292.449890 
	C548.221619,293.763977 547.265076,295.475952 547.302063,298.540436 
	C547.432800,309.368103 547.324768,320.198547 547.366211,331.027679 
	C547.371704,332.454834 546.914001,334.061371 548.791870,335.699341 
	C564.041809,330.367462 578.556580,322.762604 593.000000,315.000000 
	C593.000000,316.066681 593.000000,317.133331 592.669922,318.736328 
	C581.995789,324.256226 571.808655,329.605347 561.268555,334.132629 
	C547.542908,340.028137 547.422302,339.747467 547.329895,354.389679 
	C547.325684,355.056122 547.386658,355.730927 547.303345,356.387390 
	C547.069763,358.228699 547.822144,361.005249 544.755676,360.795624 
	C542.156616,360.618011 542.909485,358.070251 542.799866,356.376404 
	C542.493652,351.643005 543.292847,346.841461 542.247864,341.911072 
	C541.241516,342.077515 540.581116,342.095184 539.984131,342.298767 
	C521.970886,348.442474 503.581604,353.006897 484.672638,355.311981 
	C482.278748,355.603821 481.377045,357.112061 480.258606,358.819336 
	C475.457458,366.148285 468.536621,370.009491 459.875641,370.652557 
	C452.769745,371.180145 447.421265,368.381348 445.898407,362.717102 
	C444.884399,358.945648 442.994263,358.228760 439.519257,358.237213 
	C424.850281,358.272827 410.269043,356.938202 395.806183,354.520935 
	C385.505554,352.799316 375.252228,350.794739 364.473114,348.824188 
	C364.877380,361.563293 356.727997,367.785217 345.905975,372.571411 
	C348.700531,373.688568 350.665771,374.569397 352.693115,375.270569 
	C391.919281,388.836700 432.133453,395.750153 473.775818,393.998383 
	C502.264984,392.799927 529.892517,387.540161 556.891174,378.523132 
	C569.228394,374.402710 580.993774,368.914215 593.000000,364.000000 
	C593.000000,365.066681 593.000000,366.133331 593.000000,367.600006 
M161.190353,201.359039 
	C144.097153,199.701050 126.969337,198.691650 109.793259,199.218094 
	C93.964966,199.703247 96.602303,196.125992 96.326752,213.670761 
	C96.316330,214.334412 96.287399,215.037155 96.482635,215.653397 
	C96.670929,216.247696 97.024178,217.079681 97.501556,217.247284 
	C101.893875,218.789429 105.877304,217.429306 109.914673,215.608017 
	C112.794403,214.308914 112.661781,212.296829 112.272461,209.845154 
	C112.051376,208.452957 112.304306,207.111526 114.277077,207.203506 
	C116.366203,208.737289 114.395897,211.946701 116.525970,213.189331 
	C124.330215,214.583298 119.988121,206.672043 122.937592,204.566132 
	C126.061691,205.723297 124.435173,208.812210 125.432594,209.644455 
	C127.753899,211.434235 130.657990,208.976044 131.446762,211.655136 
	C132.669693,215.808929 126.702545,213.957031 126.346741,217.581818 
	C128.809616,218.963074 131.013779,220.886169 133.209854,216.650696 
	C135.290466,212.637894 139.160782,211.427460 143.404556,211.775452 
	C148.942719,212.229584 153.735748,214.457794 157.129959,218.989410 
	C158.617523,220.975449 160.254364,222.250626 162.755692,222.678894 
	C172.922623,224.419662 183.096451,226.145767 193.204926,228.188156 
	C196.669586,228.888168 197.675766,227.942352 197.762024,224.579102 
	C197.838257,221.607498 196.680222,218.339645 198.859848,215.674500 
	C201.451630,215.877838 201.249191,218.028168 201.947006,219.380020 
	C205.895584,227.029404 210.901459,232.939270 220.049622,235.039597 
	C231.067154,237.569107 241.854294,241.186844 252.354858,245.445847 
	C256.679993,247.200104 260.532318,247.317642 264.741821,245.233780 
	C266.813904,244.208023 269.014557,242.541031 271.612823,243.498688 
	C272.573608,245.015366 272.432190,246.574783 272.271027,248.021347 
	C271.875610,251.569534 273.302734,253.405777 276.716919,254.645874 
	C302.420898,263.982117 328.769104,270.770569 355.729095,275.290802 
	C359.078552,275.852417 359.907593,274.517426 359.872681,271.605988 
	C359.814758,266.773865 359.985260,261.936340 359.824371,257.108948 
	C359.719696,253.968460 361.006531,252.192993 363.895935,251.076935 
	C367.780609,249.576462 371.850983,248.396439 375.872498,245.723984 
	C374.683929,245.517395 374.206421,245.382004 373.723328,245.357895 
	C340.806549,243.715759 308.480377,238.400223 277.103668,228.345139 
	C239.463150,216.282715 201.612381,205.370178 161.190353,201.359039 
M469.406982,235.063599 
	C454.566498,238.829956 439.626251,242.099716 424.351044,243.500656 
	C420.343964,243.868149 419.038940,245.736252 419.147034,249.642975 
	C419.367889,257.625549 419.353668,265.622650 419.140045,273.605835 
	C419.036377,277.479279 420.275848,278.954620 424.293518,278.720551 
	C438.253021,277.907318 452.082031,276.134216 465.818420,273.595367 
	C477.921631,271.358429 477.907654,271.314026 478.687897,259.073517 
	C478.778442,257.652802 478.354828,255.604141 480.462646,255.577393 
	C482.554443,255.550858 482.196289,257.577423 482.332123,259.015106 
	C482.649750,262.376892 481.576111,265.889465 483.245544,269.473297 
	C498.608063,265.605896 513.248474,260.569702 528.068420,253.888336 
	C509.211975,249.710144 498.796448,239.515381 501.573395,224.613937 
	C491.032349,228.235443 480.773193,232.052139 469.406982,235.063599 
M516.530579,262.120544 
	C507.060699,265.788483 497.499634,269.208679 487.594421,271.493042 
	C483.713348,272.388123 482.109650,274.186554 482.241821,278.351837 
	C482.537354,287.666840 482.437744,296.998688 482.303162,306.320862 
	C482.251984,309.865753 483.435272,311.220215 487.036011,310.440857 
	C504.967194,306.559570 522.450684,301.258179 539.414429,294.248291 
	C541.459045,293.403381 542.730835,292.311920 542.717407,289.884064 
	C542.650330,277.730652 542.683899,265.576721 542.632202,253.423141 
	C542.629761,252.860657 542.147888,252.300201 541.757751,251.453247 
	C533.430969,254.973007 525.335754,258.394867 516.530579,262.120544 
M482.334106,334.498047 
	C482.334106,340.251556 482.334106,346.005066 482.334106,351.592041 
	C483.638824,351.891724 484.135437,352.146057 484.595123,352.091156 
	C503.474487,349.836578 521.823303,345.348724 539.748657,339.039551 
	C542.328491,338.131531 542.750000,336.337585 542.731323,333.986053 
	C542.678406,327.334229 542.728699,320.681641 542.733337,314.029327 
	C542.737244,308.452087 542.734131,302.874847 542.734131,297.424774 
	C541.644592,297.266266 541.275269,297.090759 541.011475,297.191498 
	C522.833069,304.133820 504.368500,310.129730 485.280029,314.058594 
	C482.723999,314.584656 482.350006,316.370850 482.357330,318.532074 
	C482.374115,323.521210 482.345367,328.510468 482.334106,334.498047 
M420.709412,315.836365 
	C421.504852,316.063324 422.293976,316.462433 423.096649,316.491943 
	C440.602692,317.134735 457.928131,315.352661 475.182129,312.584564 
	C478.251831,312.092102 478.653870,310.022491 478.646484,307.482574 
	C478.622314,299.169159 478.722443,290.854828 478.625702,282.542572 
	C478.595856,279.976501 479.338928,277.250763 477.525177,274.446503 
	C472.732391,275.387909 467.897461,276.377808 463.046661,277.282684 
	C449.964752,279.722900 436.760254,281.149658 423.487579,282.007141 
	C421.680450,282.123901 419.365021,282.035431 419.387207,284.575623 
	C419.476776,294.828705 418.335571,305.112762 420.709412,315.836365 
M409.195312,349.681458 
	C407.947845,350.404633 406.700378,351.127777 404.851349,352.199646 
	C406.069702,352.582001 406.634369,352.847687 407.224854,352.931488 
	C419.286957,354.643646 431.429932,354.942444 443.587555,355.000519 
	C445.742615,355.010803 446.813751,353.625061 447.866852,352.047729 
	C450.939331,347.445648 455.286163,344.567535 460.382538,342.533997 
	C466.018524,340.285065 471.664978,340.239136 478.193298,342.478882 
	C478.958252,333.645355 478.799164,325.564545 478.404266,317.493103 
	C478.318573,315.741058 476.630005,315.808167 475.251038,315.987335 
	C471.784607,316.437622 468.316864,316.880066 464.855560,317.367615 
	C451.141815,319.299225 437.335510,319.821167 423.513458,320.029144 
	C420.619965,320.072662 419.151215,321.137390 419.287018,324.168243 
	C419.376404,326.162537 419.089722,328.181335 419.266541,330.162811 
	C420.011322,338.509369 416.294708,344.585785 409.195312,349.681458 
M99.359116,279.848053 
	C116.865219,282.096954 134.260132,284.986359 151.406418,289.209869 
	C155.107605,290.121552 156.681122,289.234589 156.639542,285.229523 
	C156.469437,268.845917 158.070007,271.610687 143.550430,268.793274 
	C143.387222,268.761597 143.230118,268.698151 143.066772,268.667664 
	C129.313812,266.101898 115.455132,264.370636 101.516922,263.173492 
	C97.557259,262.833405 95.962402,264.183838 96.241974,268.158691 
	C96.344261,269.612976 97.037125,271.594177 94.705177,272.413025 
	C92.199196,270.833466 93.093933,268.259277 92.960129,266.093781 
	C92.814049,263.729523 92.078529,262.337524 89.473770,262.256073 
	C81.486031,262.006195 73.501656,261.650574 65.514435,261.381531 
	C63.838867,261.325104 62.055328,261.335510 61.352211,263.342987 
	C59.463181,268.736359 55.616631,272.566284 50.305531,276.376465 
	C67.048988,277.085999 82.782280,278.039764 99.359116,279.848053 
M309.371277,357.088989 
	C314.928162,359.460052 320.075073,362.900513 326.667603,364.307739 
	C326.689178,353.290833 333.518188,347.500031 342.311401,342.469391 
	C333.420746,339.275330 325.561066,336.571381 317.802368,333.603424 
	C314.832184,332.467255 312.069092,331.201385 309.246185,333.553284 
	C306.938934,329.621460 281.303284,316.174957 272.762268,314.219574 
	C271.166748,322.532471 264.964233,326.066101 256.951660,328.523956 
	C257.861633,329.092682 258.255554,329.375702 258.680756,329.599304 
	C275.474762,338.431915 291.450500,348.771210 309.371277,357.088989 
M409.249359,282.267090 
	C394.468781,282.656311 379.771881,281.103973 364.605072,279.840851 
	C363.820068,289.752594 364.244904,299.187012 364.318207,308.610138 
	C364.332092,310.388092 365.537140,311.295227 367.177887,311.542450 
	C381.475616,313.696777 395.758911,315.954712 410.274994,316.116821 
	C413.775513,316.155884 414.951355,314.610138 414.907227,311.286255 
	C414.799072,303.133514 414.786591,294.976746 414.925446,286.824799 
	C414.984650,283.351654 413.578918,281.890045 409.249359,282.267090 
M359.803925,338.892700 
	C359.805756,331.744781 359.746918,324.596100 359.840546,317.449371 
	C359.875916,314.749115 359.054840,313.011200 356.201904,312.448578 
	C345.277832,310.294312 334.551849,307.339661 323.883942,304.185486 
	C321.143188,303.375122 319.513245,303.772125 318.720093,306.792816 
	C317.117584,312.895599 315.335205,318.951782 313.581055,325.013885 
	C312.892548,327.393250 313.743195,328.806152 316.019318,329.621216 
	C330.197479,334.698242 344.112518,340.646881 359.445496,342.748840 
	C359.575592,341.634094 359.687744,340.673004 359.803925,338.892700 
M573.859009,277.401703 
	C576.660156,275.967194 577.841919,273.908936 574.911438,271.754364 
	C569.695862,267.919708 571.118591,264.776154 574.647766,260.459229 
	C582.455322,250.908844 582.021851,245.557831 574.346313,236.875092 
	C572.347900,234.614410 570.829346,234.625031 568.461609,236.063171 
	C562.504089,239.681747 556.473083,243.189499 550.355957,246.530029 
	C547.924561,247.857819 547.309448,249.658829 547.325073,252.211578 
	C547.396362,263.839203 547.338379,275.467560 547.357300,287.095642 
	C547.358826,288.033417 547.079224,289.143677 548.305298,289.789978 
	C548.723145,289.756226 549.279602,289.859467 549.682007,289.656830 
	C557.536804,285.701691 565.373657,281.710938 573.859009,277.401703 
M156.609802,260.313782 
	C156.612137,258.983368 156.617065,257.652985 156.616379,256.322571 
	C156.612198,248.248459 156.601349,248.322174 148.603607,247.191620 
	C135.273254,245.307220 121.954170,243.463135 108.468582,242.930145 
	C95.982635,242.436661 96.099907,242.242920 96.253433,254.704056 
	C96.297272,258.262543 97.418320,259.595154 101.077675,259.902313 
	C117.469955,261.278473 133.735840,263.678467 149.907410,266.695953 
	C156.494339,267.925018 156.489700,267.949860 156.609802,260.313782 
M348.746887,307.668243 
	C350.699524,308.079987 352.730835,308.274628 354.588745,308.947815 
	C358.709625,310.440948 359.984955,308.901703 359.890411,304.834106 
	C359.723999,297.676727 359.797211,290.512146 359.873138,283.351624 
	C359.904022,280.439880 359.021423,278.781677 355.802399,278.262146 
	C347.760406,276.964233 339.753143,275.423981 331.774963,273.773285 
	C329.090942,273.217957 327.809448,273.793152 327.116516,276.559753 
	C325.540588,282.852020 323.851746,289.127960 321.871399,295.302368 
	C320.720154,298.891663 321.799042,300.555298 325.277008,301.446289 
	C332.851196,303.386658 340.381256,305.499298 348.746887,307.668243 
M298.673035,290.811615 
	C304.759918,287.400208 308.070618,288.302460 311.038025,294.499481 
	C311.916351,296.333710 312.779877,297.673828 314.958954,297.627838 
	C316.738617,297.590302 317.746063,296.394531 318.186676,294.944885 
	C319.648621,290.134674 320.941406,285.273071 322.488281,279.756348 
	C315.881622,282.479828 310.078705,282.585815 305.175171,278.576111 
	C301.437592,275.519836 303.004059,271.390472 305.123199,267.374786 
	C294.170197,263.769897 283.581177,260.284790 272.364655,256.593140 
	C272.364655,264.714691 272.363373,271.999023 272.365875,279.283325 
	C272.366302,280.539978 272.803253,281.729736 273.962646,282.175995 
	C281.952423,285.251221 289.359711,289.896912 298.673035,290.811615 
M304.465118,303.371246 
	C300.535339,302.704041 297.699310,300.801422 296.676422,296.696564 
	C296.490417,295.950043 296.021149,294.938171 295.415558,294.683197 
	C288.012726,291.566315 280.559998,288.567902 272.366760,285.232025 
	C272.366760,293.253632 272.379059,300.203308 272.359589,307.152924 
	C272.353363,309.378357 273.872620,310.300568 275.560150,311.153137 
	C284.309937,315.573517 293.019775,320.088318 302.149811,323.686371 
	C304.359497,324.557220 306.381165,326.403656 309.508057,325.607971 
	C311.562042,318.312561 313.644562,310.915771 315.877319,302.985229 
	C311.785828,303.215302 308.543396,304.710388 304.465118,303.371246 
M268.158264,305.994629 
	C269.735931,299.112976 268.668365,292.153107 268.714905,285.229797 
	C268.729828,283.013275 266.671417,282.384277 265.013306,281.660339 
	C259.690033,279.336090 254.411270,276.887817 248.988220,274.820923 
	C244.108063,272.960938 239.438126,270.364746 233.217270,269.525452 
	C233.217270,276.500580 233.192963,283.061371 233.238266,289.621674 
	C233.247086,290.897339 234.104965,291.771973 235.231354,292.265533 
	C245.991302,296.980530 256.760529,301.674316 268.158264,305.994629 
M396.497009,324.689575 
	C402.310791,322.018005 408.346069,322.365082 414.534790,323.928589 
	C413.842926,320.268982 413.852814,320.155670 410.634155,319.874451 
	C396.395416,318.630310 382.149292,317.439117 368.105530,314.652374 
	C365.040314,314.044098 364.199493,315.416626 364.204376,318.080688 
	C364.219025,326.066772 364.195892,334.052917 364.216919,342.038971 
	C364.220428,343.371399 364.205933,344.968964 365.770721,345.399200 
	C371.282043,346.914490 376.785614,348.612213 383.031281,348.428436 
	C381.500183,343.459198 381.895599,339.087616 384.314575,335.030487 
	C387.040070,330.459198 390.987091,327.227173 396.497009,324.689575 
M137.080963,228.490005 
	C134.698441,226.796066 134.179596,222.560303 129.319275,224.290359 
	C124.616074,225.964493 129.431381,231.305069 125.448364,232.668823 
	C123.845573,232.118637 123.880531,230.883499 123.729309,229.740692 
	C123.582008,228.627472 123.850281,227.344849 122.363731,226.601974 
	C120.466682,226.637512 118.525169,226.894150 117.551643,229.050980 
	C116.726768,230.878510 118.367775,233.443634 115.972427,234.842148 
	C113.189056,233.999817 114.969734,230.170166 112.211021,229.442429 
	C110.532814,228.999741 107.641914,230.656052 107.611641,227.335876 
	C107.586212,224.546265 110.473801,225.181229 112.127968,224.369965 
	C112.516991,224.179169 112.749580,223.669403 113.203232,223.128662 
	C112.771095,222.605240 112.414238,221.749161 111.972092,221.702591 
	C107.200485,221.199890 101.916992,219.676559 97.797638,222.007233 
	C94.437279,223.908447 96.847397,228.779160 96.354469,232.291382 
	C96.262993,232.943130 96.419350,233.627853 96.344406,234.284012 
	C95.952087,237.718857 97.519798,238.927322 100.899620,239.116135 
	C116.161652,239.968658 131.369186,241.389191 146.516281,243.547211 
	C157.243805,245.075562 157.279861,244.845398 156.328674,233.899307 
	C156.303909,233.614197 156.007294,233.352722 155.701263,232.861710 
	C149.085800,234.693054 142.997833,233.407562 137.080963,228.490005 
M93.015984,234.201660 
	C93.008156,231.536407 92.875763,228.864243 93.023247,226.207611 
	C93.218498,222.690689 92.033585,221.082626 88.191391,221.142120 
	C72.361732,221.387207 56.611565,222.651932 40.890030,224.380630 
	C38.663441,224.625473 36.401424,225.177032 36.497200,228.097488 
	C36.588768,230.889709 38.811161,230.941437 40.851070,231.048401 
	C46.382877,231.338470 51.230579,233.315353 55.338535,237.015778 
	C56.930809,238.450073 58.732056,238.981079 60.823086,238.958420 
	C70.150414,238.857376 79.478142,238.757126 88.805809,238.749054 
	C91.388947,238.746826 93.015091,237.954208 93.015984,234.201660 
M180.809357,228.890427 
	C175.077072,227.927582 169.316788,227.102982 163.622940,225.950317 
	C160.183975,225.254105 159.479996,226.934708 159.559814,229.718414 
	C159.669327,233.538101 160.169891,237.391602 159.818329,241.166855 
	C159.464706,244.964371 161.221802,246.041229 164.437897,246.683838 
	C172.908554,248.376404 181.328049,250.323441 189.780945,252.107452 
	C192.140259,252.605408 194.379410,254.190857 196.945618,253.129837 
	C198.145264,251.215668 197.653244,249.167435 197.662766,247.217819 
	C197.740860,231.212463 197.723907,231.212387 180.809357,228.890427 
M186.950836,254.668732 
	C179.481567,253.054214 171.988251,251.541199 164.553848,249.779526 
	C161.167862,248.977142 159.918564,250.126434 159.936661,253.439514 
	C159.956635,257.095154 160.012451,260.776215 159.626038,264.400726 
	C159.291229,267.541016 160.450226,268.960144 163.413635,269.674408 
	C170.680862,271.425995 177.875046,273.481964 185.146622,275.213867 
	C188.967667,276.123901 192.734924,277.575928 197.101654,277.287689 
	C198.120728,273.977234 197.730957,270.649353 197.664566,267.401306 
	C197.441132,256.472412 199.968460,257.861542 186.950836,254.668732 
M87.300049,217.914871 
	C93.299011,217.541672 93.764725,216.870590 91.990585,210.608978 
	C83.267029,212.378922 76.186081,209.463577 70.741684,202.387268 
	C69.537315,200.821915 67.697639,201.374207 66.080727,201.451294 
	C55.052944,201.977127 44.672195,203.845001 38.752651,214.831360 
	C38.525208,215.253464 38.049923,215.534821 37.732689,215.917084 
	C36.601364,217.280258 34.642216,218.542923 35.749653,220.563690 
	C36.851078,222.573441 39.058594,221.665985 40.748306,221.414703 
	C55.877033,219.164886 71.133667,218.661209 87.300049,217.914871 
M229.681412,305.434998 
	C229.393250,290.429840 231.873291,294.763489 218.358780,289.127899 
	C217.897552,288.935577 217.438126,288.726227 216.959183,288.590942 
	C211.921387,287.167999 207.269638,284.401245 201.655502,283.890015 
	C200.457275,292.391174 194.545273,296.274231 186.676895,299.098450 
	C201.550018,303.717499 214.916382,309.587860 228.551575,314.764160 
	C230.305588,311.680695 229.401321,308.965271 229.681412,305.434998 
M388.718201,278.695282 
	C395.866577,278.783630 403.014771,278.906555 410.163391,278.935822 
	C411.936157,278.943085 414.417755,279.210510 414.603760,276.808929 
	C415.145172,269.819305 415.157166,262.805145 414.577759,254.966446 
	C397.345978,262.016846 381.250336,268.602356 365.154694,275.187897 
	C372.876953,277.860321 380.378143,277.779724 388.718201,278.695282 
M211.640030,248.879669 
	C213.539795,250.751923 215.899719,252.500305 216.566528,255.075256 
	C218.253189,261.588379 223.519196,262.257050 228.392410,263.415039 
	C233.079330,253.087738 244.993622,255.457947 252.329697,248.793762 
	C240.284363,244.378586 228.659790,240.057861 215.999649,237.378967 
	C216.866531,242.924484 220.016296,247.406601 217.886246,252.754196 
	C214.402832,244.760941 211.291016,236.691010 201.253937,233.280975 
	C201.965973,240.799530 207.004639,244.291138 211.640030,248.879669 
M214.916092,284.478271 
	C219.583405,286.024506 223.970825,288.463837 229.187073,289.230988 
	C230.119522,284.160339 229.606888,279.348236 229.657593,274.572815 
	C229.742920,266.536896 228.953140,265.794708 219.879639,264.845520 
	C218.008621,269.818237 219.151352,276.144501 213.726318,281.324524 
	C213.739609,275.397003 216.086746,271.236694 215.627075,266.724335 
	C215.232803,262.853912 209.773361,259.183075 204.127304,259.428345 
	C199.265442,259.639587 201.331177,263.624146 201.289444,265.934631 
	C201.039810,279.759735 201.137726,279.761505 214.916092,284.478271 
M248.236954,258.843292 
	C243.432144,260.694427 238.627350,262.545593 232.568146,264.880005 
	C245.445145,270.102661 256.745117,274.685730 268.863342,279.600616 
	C268.863342,272.284241 268.934174,265.832153 268.841309,259.382385 
	C268.764435,254.042725 265.684143,252.082199 260.566956,254.011261 
	C256.678375,255.477142 252.820236,257.023773 248.236954,258.843292 
M88.225044,258.904785 
	C91.664673,259.317535 93.169975,257.762421 93.003136,254.341919 
	C92.905983,252.350174 92.808807,250.330780 93.021049,248.357101 
	C93.522591,243.693222 91.807594,241.677612 86.891312,241.952621 
	C80.919914,242.286652 74.914864,241.968719 68.927940,242.098099 
	C66.202507,242.156998 63.319962,241.498322 60.610176,243.113037 
	C60.744606,246.755539 62.826893,249.919205 62.339073,253.476135 
	C61.811813,257.320618 63.953117,258.406036 67.338936,258.442566 
	C73.988640,258.514252 80.636932,258.716034 88.225044,258.904785 
M534.303772,246.812592 
	C538.436646,241.178574 537.458679,234.444946 531.579956,228.058167 
	C525.819092,221.799408 518.188599,219.940247 514.062073,223.789993 
	C509.675964,227.881805 510.800171,235.858826 516.639099,242.076096 
	C522.682983,248.511597 527.483582,249.980301 534.303772,246.812592 
M234.066101,316.995636 
	C237.512604,319.135590 240.968323,321.253387 245.441574,322.109833 
	C245.056442,313.174103 251.548096,309.931519 258.301697,306.197052 
	C249.795456,302.087006 242.161804,298.309998 233.134262,295.251221 
	C233.355835,302.850708 232.574432,309.585907 234.066101,316.995636 
M159.638275,280.837128 
	C159.585770,283.325775 159.573715,285.816162 159.466629,288.302460 
	C159.394470,289.978058 159.808350,291.229523 161.616455,291.704895 
	C165.730927,292.786621 169.835907,293.904419 174.591629,295.181213 
	C172.131058,286.661713 177.615356,282.718719 182.975052,278.419739 
	C178.063019,275.650391 172.900574,275.028320 167.986725,273.899323 
	C160.065231,272.079224 159.398010,269.680573 159.638275,280.837128 
M49.629349,179.260376 
	C49.763515,175.941345 49.402962,172.781479 47.029228,170.120346 
	C36.910347,179.062195 30.490978,194.663879 33.585770,204.189011 
	C40.697495,196.889084 47.807072,190.365036 49.629349,179.260376 
M39.749035,272.311981 
	C38.710442,261.557068 37.902912,260.782959 30.139187,263.085266 
	C29.749598,264.976074 32.700478,265.226685 32.119213,267.462036 
	C26.642185,268.258118 22.923807,259.754974 16.762014,264.306946 
	C17.739271,273.231689 31.533182,277.765778 37.572517,276.004700 
	C39.051167,275.573547 39.822010,274.680634 39.749035,272.311981 
M378.352509,259.759888 
	C389.367065,255.297028 400.381592,250.834167 411.396149,246.371307 
	C411.247589,245.951782 411.099030,245.532242 410.950470,245.112717 
	C407.665131,245.124725 404.305206,244.758163 401.156067,246.007843 
	C389.889709,250.478592 378.660950,255.044449 367.436249,259.619232 
	C365.151215,260.550568 363.347198,261.858856 365.174316,265.159302 
	C369.396210,263.428406 373.520782,261.737396 378.352509,259.759888 
M53.762287,253.531418 
	C52.310501,248.788208 49.252632,245.435730 44.617355,243.810638 
	C42.560616,243.089539 39.911335,242.272675 39.318932,245.957718 
	C37.839432,255.160904 41.330399,259.119141 50.497421,258.567444 
	C50.662273,258.557526 50.827946,258.543243 50.992535,258.549469 
	C54.274818,258.673523 55.163818,257.159790 53.762287,253.531418 
M30.595705,225.969650 
	C22.772373,228.443787 19.704794,235.113831 15.791899,241.637070 
	C19.462240,243.198944 21.661470,242.461456 23.290419,239.835785 
	C24.999386,237.081131 27.358505,235.043091 30.271931,233.694839 
	C34.767525,231.614380 33.622009,228.899445 30.595705,225.969650 
M26.572725,256.703888 
	C28.777750,261.392822 32.658104,258.331757 35.775681,258.584290 
	C37.115314,258.692810 37.656536,257.323273 37.341404,256.021454 
	C36.424034,252.231750 36.688545,248.155258 34.867264,244.581177 
	C29.479591,245.962372 27.086460,249.289230 26.572725,256.703888 
M43.271252,272.674805 
	C43.541203,273.796936 44.043076,274.387421 45.361172,273.954468 
	C49.706802,272.527100 53.676746,266.760223 53.622375,261.573456 
	C49.642601,261.481567 45.626453,260.685547 41.502625,262.393311 
	C42.094543,265.834717 42.622562,268.904572 43.271252,272.674805 
M19.699459,250.075455 
	C19.496861,248.681549 20.563040,247.189270 19.353498,245.781921 
	C16.813728,245.811432 14.153522,245.908737 13.716490,249.141739 
	C13.241156,252.658081 12.110195,256.546844 14.844949,259.505188 
	C16.230659,261.004211 18.481974,260.258026 19.687136,259.217926 
	C19.687136,256.120209 19.687136,253.501526 19.699459,250.075455 
M210.052948,257.678436 
	C210.975159,257.683929 211.823074,258.746948 213.135605,257.621155 
	C211.202637,254.669937 208.727844,252.344070 205.481110,250.909912 
	C204.162506,250.327484 202.417999,249.531738 201.616348,251.492203 
	C200.829254,253.417099 201.420807,255.123978 203.642670,255.822678 
	C205.546280,256.421326 207.469101,256.958862 210.052948,257.678436 
M319.164062,271.084625 
	C315.393646,272.274994 318.221619,275.646851 316.325623,277.749817 
	C321.533875,277.158844 321.771545,276.990570 323.881256,272.743286 
	C323.493835,272.477753 323.131561,272.102325 322.692657,271.954865 
	C321.750580,271.638306 320.769043,271.439301 319.164062,271.084625 
z"/>
</svg>