<svg version="1.1" id="Layer_1" xmlns="http://www.w3.org/2000/svg" xmlns:xlink="http://www.w3.org/1999/xlink" x="0px" y="0px"
	 width="100%" viewBox="0 0 592 256" enable-background="new 0 0 592 256" xml:space="preserve">
<path fill="#000000" opacity="1.000000" stroke="none" 
	d="
M593.000000,221.600006 
	C585.606873,223.603104 579.134094,227.547867 572.176514,230.263733 
	C525.858826,248.343643 478.057678,254.971558 428.582367,249.743134 
	C369.732574,243.524017 316.662506,221.416061 266.345490,191.431839 
	C256.921997,185.816330 246.845154,181.295532 237.049042,176.310349 
	C236.211914,175.884338 235.217514,175.767441 234.502151,175.565186 
	C232.857224,176.676544 233.205338,178.099396 233.139191,179.387833 
	C232.672150,188.487503 223.075470,196.280731 214.063202,194.836884 
	C210.581512,194.279099 207.726303,192.802216 206.440582,189.224182 
	C205.069427,185.408356 206.740341,182.345612 209.077606,179.629913 
	C213.340515,174.676743 220.166794,172.557007 228.838120,173.520721 
	C225.781067,170.557678 222.198029,169.752594 219.029221,168.426849 
	C200.886230,160.836456 182.292648,154.526871 163.298264,149.406586 
	C126.073463,139.371994 88.118179,134.613907 49.639713,133.550903 
	C45.766331,133.443909 43.860626,134.016541 44.723015,138.841263 
	C45.705364,144.337082 46.543846,150.044418 45.267136,155.689850 
	C42.409149,168.327438 29.152317,173.782761 19.071033,166.483276 
	C14.889879,163.455887 13.898616,159.316833 15.207360,154.532028 
	C16.330433,150.426071 18.429070,147.177628 23.154909,146.691467 
	C27.777702,146.215881 31.357994,147.695663 33.220097,152.243408 
	C35.040859,156.690186 33.825432,160.383011 30.333342,163.446609 
	C29.364458,164.296600 28.257061,164.988708 27.095472,165.839493 
	C33.323940,167.207901 39.643791,163.044342 41.617302,156.704041 
	C43.738964,149.887787 42.076080,143.156067 41.378666,136.411057 
	C41.142021,134.122375 39.384319,133.986847 37.272980,133.967484 
	C25.453188,133.859070 13.655538,134.160706 1.438035,135.073212 
	C1.000000,134.250000 1.000000,133.500000 1.453810,132.303589 
	C7.480036,131.658600 13.074404,131.680786 19.324266,130.308578 
	C16.416824,127.517426 13.174975,125.858528 11.485929,122.858612 
	C9.021637,118.481781 5.517025,117.507843 1.000000,119.000000 
	C1.000000,117.933327 1.000000,116.866661 1.312689,115.523102 
	C3.058339,115.618202 4.491354,115.990776 6.159378,114.595177 
	C5.489723,111.154800 4.524476,107.540520 4.550098,103.778427 
	C4.566783,101.328514 2.741892,101.498871 1.000000,102.000000 
	C1.000000,101.250000 1.000000,100.500000 1.365555,99.305328 
	C3.087230,98.702003 4.471234,98.445206 4.959462,96.966690 
	C6.380792,92.662430 7.710077,88.327774 9.307725,83.269691 
	C6.079240,83.942108 3.539620,84.471054 1.000000,85.000000 
	C1.000000,83.933327 1.000000,82.866661 1.326075,81.486885 
	C15.924593,82.051155 20.473736,69.456635 28.779184,61.907890 
	C19.169001,62.446743 10.092277,64.764236 1.000000,67.000000 
	C1.000000,65.933334 1.000000,64.866661 1.000000,63.399994 
	C9.501823,62.490559 17.526615,59.450333 25.915766,58.298557 
	C28.986584,57.876953 28.425955,55.439735 28.145538,53.201931 
	C26.742065,42.001766 28.757996,31.633768 36.033627,22.689680 
	C38.796734,19.292931 42.213867,15.262977 46.595184,16.254044 
	C50.926369,17.233768 51.463352,22.585976 52.325310,26.572283 
	C54.250698,35.476654 53.824570,44.383846 51.161957,53.397354 
	C56.841858,54.306019 61.972221,52.734261 67.157448,51.886848 
	C68.215942,51.713860 68.764206,50.845509 69.313026,49.963833 
	C73.636032,43.018894 80.257820,40.386681 86.778343,45.221443 
	C93.752914,50.392872 100.912735,49.889587 108.478592,49.807045 
	C161.568756,49.227829 213.137741,57.901459 263.387726,74.962372 
	C293.583527,85.214478 324.566864,91.927513 356.369598,94.920685 
	C364.837677,95.717667 373.345428,95.436958 381.773132,96.546928 
	C384.189575,96.865181 386.357178,96.084175 388.536011,95.191246 
	C396.854523,91.782135 405.183380,88.397774 413.525818,85.047684 
	C415.020721,84.447380 416.444366,83.352722 418.232269,83.914635 
	C419.846191,85.660446 419.306793,87.772102 419.177094,89.663414 
	C418.894073,93.789619 420.797333,94.963623 424.596191,94.491707 
	C458.054291,90.335312 490.093536,81.410027 520.491455,66.637726 
	C546.742371,53.880665 570.614014,37.664547 592.717041,18.174675 
	C593.000000,19.388889 593.000000,20.777779 592.689331,22.716492 
	C581.566956,31.583622 571.098694,40.343464 559.682312,47.874321 
	C547.172852,56.126217 534.170776,63.507515 520.367859,70.532738 
	C535.038757,74.481895 547.467651,80.101700 547.908081,98.137962 
	C560.915588,91.493347 572.375916,84.159500 583.497375,76.247887 
	C586.582275,74.053291 589.228394,71.159035 593.000000,70.000000 
	C593.000000,71.066673 593.000000,72.133339 592.667664,73.704475 
	C586.493103,78.201790 580.650879,82.194633 574.288818,86.542770 
	C580.743286,94.289452 586.871643,101.644730 593.000000,109.000000 
	C593.000000,109.000000 593.000000,109.500000 592.731567,109.948303 
	C588.899048,113.684593 586.649353,117.694656 585.432312,122.390770 
	C586.120361,122.582993 586.487183,122.822548 586.715149,122.727814 
	C588.823730,121.851418 590.908386,120.917320 593.000000,120.000000 
	C593.000000,121.066673 593.000000,122.133339 592.666016,123.696449 
	C584.491394,128.128784 584.074036,130.141541 589.897034,136.589539 
	C590.761353,137.546585 591.957397,138.203979 593.000000,139.000000 
	C593.000000,140.714355 593.000000,142.428711 592.672424,144.393860 
	C591.435120,144.244553 590.555115,143.604721 589.610291,143.487305 
	C586.148743,143.057129 582.368469,142.244431 580.160095,145.984161 
	C578.172302,149.350296 581.151672,151.468689 582.760742,153.858292 
	C583.543701,155.021072 585.122620,155.978653 583.119629,158.391434 
	C576.616577,152.842026 570.276917,147.543076 571.459106,137.868423 
	C569.306763,137.115891 568.104370,138.169922 566.796326,138.814316 
	C561.720215,141.315033 556.740723,144.046738 551.531189,146.229065 
	C548.192688,147.627594 547.233643,149.654114 547.295471,153.109131 
	C547.483093,163.596115 547.325195,174.088928 547.367432,184.579224 
	C547.373779,186.165161 546.830383,187.934402 548.697510,189.679657 
	C564.104248,184.496460 578.522278,176.682419 593.000000,169.000000 
	C593.000000,170.066666 593.000000,171.133347 592.670532,172.738068 
	C578.502869,180.198380 564.756531,187.320969 550.189758,192.657013 
	C547.955872,193.475327 547.305420,195.148926 547.332886,197.369919 
	C547.386475,201.700089 547.414734,206.033951 547.286987,210.361374 
	C547.233948,212.158890 548.119812,214.931458 544.980042,214.887863 
	C542.317200,214.850891 542.886841,212.355225 542.808167,210.641479 
	C542.701294,208.314331 542.782227,205.978607 542.780884,203.646561 
	C542.776367,195.528122 542.770874,195.512085 535.285828,197.899628 
	C519.396179,202.968063 503.217316,206.829956 486.706085,209.165756 
	C483.636475,209.599991 481.731750,210.622253 479.923096,213.261368 
	C474.039459,221.846359 465.608063,225.433380 455.291748,224.219040 
	C450.684631,223.676712 446.878021,221.441345 445.800781,216.631195 
	C445.006439,213.084183 443.201599,212.312592 439.857635,212.267944 
	C422.867035,212.041183 405.968750,210.642960 389.250916,207.457123 
	C381.147003,205.912796 373.046448,204.350876 364.463013,202.704605 
	C364.748260,215.616928 356.841980,221.902496 346.080627,226.461853 
	C347.646973,227.133057 348.535675,227.562180 349.457367,227.901855 
	C382.974823,240.254181 417.489624,247.283722 453.291687,248.089386 
	C485.171936,248.806808 516.360657,244.957809 546.903931,235.744904 
	C562.719788,230.974274 577.889099,224.575180 593.000000,218.000000 
	C593.000000,219.066666 593.000000,220.133347 593.000000,221.600006 
M370.780609,102.456741 
	C372.133972,101.727036 373.487335,100.997330 375.588440,99.864456 
	C372.640808,99.579720 370.670990,99.342705 368.694183,99.205414 
	C332.301147,96.677925 296.802643,89.592255 262.279999,77.852890 
	C212.140640,60.803078 160.670731,52.274178 107.695267,53.205612 
	C94.825081,53.431896 96.473030,51.595585 96.337456,64.860542 
	C96.269218,71.537315 99.362183,73.775993 105.660088,71.334343 
	C109.315636,69.917114 114.074677,68.969254 112.215088,62.904808 
	C111.872864,61.788727 112.958038,60.751064 114.545860,61.164597 
	C116.305435,62.681736 115.049530,65.450813 116.843475,66.952614 
	C124.187981,68.294556 119.933060,60.606388 123.072853,58.658653 
	C126.028145,59.595692 124.565514,62.619217 126.173233,64.314995 
	C126.624214,64.385162 127.259148,64.564857 127.894470,64.566208 
	C129.285461,64.569160 131.066193,63.506264 131.702072,65.645454 
	C132.382172,67.933311 130.424774,68.383766 128.925079,69.026443 
	C127.743011,69.532997 126.183601,69.630882 126.592293,71.936440 
	C129.254730,73.275368 131.564407,74.363335 133.472458,70.231926 
	C135.099716,66.708519 138.676529,65.671326 142.352188,65.768990 
	C148.309036,65.927284 153.383804,68.190819 157.114258,72.946152 
	C158.381180,74.561150 159.563354,76.122871 161.713516,76.494804 
	C172.366257,78.337463 183.030106,80.117928 193.669693,82.033340 
	C196.979782,82.629250 197.681915,81.117645 197.739685,78.215927 
	C197.796295,75.373436 196.954987,72.323372 198.587112,69.697304 
	C201.643646,69.736908 201.303146,72.204643 202.060867,73.639107 
	C205.827271,80.769516 210.511398,86.349457 218.961945,88.616600 
	C230.200806,91.631836 241.212204,95.544151 252.205170,99.402046 
	C256.525757,100.918320 260.392303,101.398178 264.645386,99.247215 
	C266.706635,98.204773 268.956848,96.619873 271.578522,97.506577 
	C272.699768,99.314827 272.396393,101.207909 272.263611,102.986526 
	C272.037506,106.015404 273.447449,107.455223 276.179352,108.449799 
	C299.657684,116.997375 323.661102,123.586716 348.291595,127.793739 
	C359.813385,129.761719 359.708099,129.605637 359.894226,117.987457 
	C360.096069,105.389587 357.710358,107.611984 370.780609,102.456741 
M501.419952,87.785759 
	C500.271088,84.854950 501.415222,81.925072 501.805176,78.736351 
	C500.762024,78.963997 500.107513,79.022736 499.516418,79.247902 
	C474.980591,88.595085 449.721802,94.940750 423.561920,97.526886 
	C420.211609,97.858101 419.144775,99.654526 419.200592,102.884903 
	C419.341522,111.042068 419.392944,119.207642 419.170166,127.361374 
	C419.055695,131.551239 420.619415,132.931839 424.748871,132.673004 
	C439.041412,131.777115 453.223755,130.072830 467.254547,127.239311 
	C478.293457,125.010002 478.271362,124.900558 478.670166,113.575134 
	C478.676025,113.408775 478.660370,113.240761 478.677277,113.075813 
	C478.822144,111.659721 478.324127,109.618179 480.427399,109.548210 
	C482.540741,109.477890 482.242401,111.481178 482.341797,112.930748 
	C482.565643,116.195351 481.797516,119.538956 483.168121,123.379128 
	C498.534241,119.803398 513.136536,114.551773 528.129700,107.863632 
	C509.733856,101.768456 505.098175,98.324059 501.419952,87.785759 
M533.280396,150.701996 
	C534.209351,150.336487 535.110779,149.856705 536.071960,149.624557 
	C541.197876,148.386459 543.140320,145.467346 542.862183,139.961411 
	C542.367371,130.164780 542.748840,120.325241 542.683289,110.504181 
	C542.672913,108.944832 543.309631,107.153008 541.589111,105.732887 
	C540.868896,105.940796 540.047241,106.070648 539.318726,106.404045 
	C522.047791,114.308014 504.475555,121.404663 486.000000,126.010361 
	C482.842346,126.797523 482.300201,128.756760 482.320618,131.532288 
	C482.390381,141.020294 482.473511,150.511658 482.285461,159.996475 
	C482.203033,164.153366 483.617798,165.188782 487.649139,164.316772 
	C502.965027,161.003799 517.913635,156.513184 533.280396,150.701996 
M542.730469,173.498917 
	C542.730469,166.097275 542.730469,158.695648 542.730469,151.033234 
	C541.244019,151.213440 540.550232,151.154068 539.976013,151.388000 
	C522.380615,158.555801 504.261810,164.012909 485.681335,167.929031 
	C482.610657,168.576233 482.320892,170.571594 482.330994,173.092361 
	C482.369080,182.575775 482.316376,192.059540 482.344208,201.543030 
	C482.348450,202.987808 481.951508,204.568375 483.342316,205.912262 
	C484.356903,205.912262 485.512878,206.043915 486.630432,205.892471 
	C502.307190,203.767822 517.723816,200.396973 532.736877,195.430466 
	C544.433899,191.560959 542.546387,194.162659 542.734863,181.485794 
	C542.769531,179.157013 542.733398,176.827179 542.730469,173.498917 
M440.000977,134.744644 
	C434.692657,135.174301 429.389893,135.824066 424.074127,135.957672 
	C420.415222,136.049591 419.100037,137.428726 419.180359,141.061249 
	C419.360779,149.217285 419.395264,157.384201 419.175049,165.538193 
	C419.067474,169.520706 420.629883,170.676834 424.446625,170.724289 
	C441.140839,170.931839 457.659485,169.285721 474.135620,166.789108 
	C477.466492,166.284378 478.703247,164.869522 478.667816,161.593948 
	C478.561646,151.769913 478.641052,141.943970 478.617157,132.118851 
	C478.614410,130.995590 478.869202,129.746750 477.228241,128.523422 
	C465.474762,130.922180 453.261139,133.258270 440.000977,134.744644 
M466.458313,171.263779 
	C453.251862,173.157471 439.948883,173.743423 426.635620,174.051483 
	C419.290436,174.221436 418.868286,174.098572 419.343994,181.438416 
	C420.014038,191.775864 416.780273,199.710358 407.362030,204.659698 
	C406.687378,205.014221 406.068512,205.474869 404.940338,206.194489 
	C406.120178,206.572937 406.695648,206.853485 407.298340,206.936630 
	C419.197418,208.578125 431.171387,208.919983 443.162048,209.002335 
	C445.738403,209.020020 446.917664,207.235229 448.226288,205.479355 
	C452.872925,199.244751 459.301788,196.118515 466.814178,194.855377 
	C470.633850,194.213150 474.226074,195.777710 477.972107,196.326584 
	C478.223572,195.052628 478.507568,194.243423 478.523224,193.429062 
	C478.606537,189.099609 478.650726,184.768921 478.656647,180.438583 
	C478.672180,169.024918 478.661499,169.024902 466.458313,171.263779 
M83.049400,132.227982 
	C94.643211,133.236938 106.174873,134.732147 117.676262,136.505280 
	C129.021667,138.254379 140.255798,140.532639 151.415131,143.204849 
	C153.359955,143.670547 155.969818,144.479996 156.315048,141.703217 
	C156.906662,136.944489 157.022842,132.075500 156.141953,127.293602 
	C155.791306,125.390022 154.229630,124.717751 152.488937,124.394089 
	C135.485489,121.232491 118.429245,118.480614 101.160950,117.157387 
	C97.318039,116.862915 96.044464,118.339027 96.270279,121.971405 
	C96.364143,123.481125 96.903557,125.332047 94.821663,126.614189 
	C92.319733,125.158829 93.132851,122.629196 92.967728,120.520149 
	C92.802643,118.411568 92.691956,116.408745 89.895493,116.302254 
	C81.585831,115.985809 73.276001,115.673050 64.965424,115.381935 
	C63.389061,115.326721 61.932884,115.638084 61.351810,117.388008 
	C59.549522,122.815666 55.662750,126.596901 50.521305,130.251007 
	C61.622849,130.896744 71.877480,131.493225 83.049400,132.227982 
M260.366272,184.507477 
	C282.019409,196.210892 302.806305,209.643967 326.620697,218.532822 
	C326.963379,213.066391 328.159027,208.851105 331.020264,205.152618 
	C333.844940,201.501328 338.118103,199.608887 341.895813,196.336731 
	C333.592865,193.363083 325.893036,190.726700 318.294556,187.825012 
	C315.210327,186.647217 312.350677,184.834824 310.292084,186.670792 
	C298.643890,177.896698 285.000183,174.678680 272.977783,167.382843 
	C271.128082,176.549469 264.923248,180.055588 257.274689,182.503403 
	C258.468506,183.283829 259.151337,183.730209 260.366272,184.507477 
M414.844177,149.513641 
	C414.854828,146.681503 414.762390,143.844238 414.903107,141.018570 
	C415.066925,137.728226 413.998413,136.152573 410.354126,136.264557 
	C400.359680,136.571625 390.375793,136.019684 380.410309,135.241196 
	C375.304901,134.842361 370.208740,134.325043 364.634888,133.818222 
	C363.831238,143.694550 364.197266,153.137878 364.354797,162.570847 
	C364.394043,164.921967 366.246063,165.329422 368.184265,165.668198 
	C381.966370,168.077209 395.854584,169.491104 409.809937,170.375931 
	C413.478577,170.608536 414.996338,169.181381 414.883820,165.500381 
	C414.731201,160.507156 414.843719,155.505814 414.844177,149.513641 
M359.850922,191.154938 
	C359.847565,187.493042 359.839996,183.831131 359.841614,180.169235 
	C359.847321,167.395081 359.830505,167.468796 347.650116,164.494064 
	C338.487640,162.256348 329.378937,159.798492 319.679138,157.292084 
	C317.548645,164.944962 315.493622,172.270203 313.477661,179.606201 
	C312.940918,181.559433 313.826141,182.807510 315.661896,183.466629 
	C329.970825,188.604263 343.935486,194.902893 359.574585,196.714905 
	C359.677734,194.971542 359.764618,193.503128 359.850922,191.154938 
M573.832092,124.535973 
	C569.809998,121.579422 570.799622,118.890663 573.705566,115.527664 
	C582.445618,105.412827 582.365051,99.476875 574.197388,90.827896 
	C572.376221,88.899429 570.977600,88.591743 568.672668,89.994110 
	C562.572449,93.705582 556.344910,97.210724 550.119141,100.711006 
	C548.355591,101.702507 547.369507,102.927498 547.375000,105.027412 
	C547.405762,116.826599 547.389832,128.625977 547.364136,140.425217 
	C547.357300,143.561905 548.779602,144.319778 551.452454,142.939056 
	C558.828796,139.128601 566.168884,135.247879 573.553955,131.454453 
	C577.063843,129.651550 577.282654,127.571701 573.832092,124.535973 
M97.400566,96.797714 
	C95.169815,100.687592 96.818176,104.913551 96.351952,108.957397 
	C95.966118,112.303986 97.444077,113.531044 100.857246,113.874359 
	C114.897514,115.286583 128.910706,116.912437 142.813370,119.472229 
	C157.002151,122.084694 156.965363,121.890488 156.659592,106.947647 
	C156.598755,103.974457 155.830643,102.294250 152.690521,101.814629 
	C134.613342,99.053566 116.514877,96.558868 97.400566,96.797714 
M354.388306,162.820145 
	C357.058563,163.604767 359.834808,164.686996 359.814484,160.067902 
	C359.780090,152.244049 359.788910,144.419815 359.822693,136.595932 
	C359.833862,134.006149 358.733246,132.732773 356.074829,132.300568 
	C348.035370,130.993561 340.008057,129.584396 332.025421,127.970520 
	C329.116943,127.382500 327.768372,128.066681 327.029846,131.009354 
	C325.451752,137.297455 323.705414,143.552689 321.746521,149.732178 
	C320.661896,153.153824 321.841248,154.625916 325.066895,155.420441 
	C334.589600,157.766052 344.080566,160.240524 354.388306,162.820145 
M290.934174,116.732864 
	C285.003754,114.764412 279.073334,112.795959 273.374298,110.904320 
	C272.158264,112.448273 272.340515,113.646576 272.339508,114.794548 
	C272.334076,120.954842 272.354004,127.115158 272.357361,133.275467 
	C272.358582,135.550690 273.978210,136.372360 275.733917,137.081329 
	C282.060120,139.635849 288.389069,142.183502 294.710419,144.750000 
	C295.962341,145.258301 297.076477,145.560928 298.507141,144.962296 
	C306.502258,141.616852 306.884338,141.749878 311.215546,149.302979 
	C312.062012,150.779114 313.117523,151.542282 314.738342,151.628418 
	C316.529785,151.723633 317.622131,150.620331 318.079132,149.137161 
	C319.470612,144.620972 320.689545,140.051605 322.060699,135.202148 
	C305.769470,137.045807 299.957733,132.063721 304.896790,121.223099 
	C300.464081,119.812073 296.069427,118.413155 290.934174,116.732864 
M314.702271,161.542099 
	C314.775421,160.132050 316.132843,158.821472 315.087830,157.319977 
	C314.714478,157.258362 314.383514,157.117493 314.083893,157.166901 
	C306.519318,158.413681 299.238861,159.039795 296.232300,149.555954 
	C296.101746,149.144089 295.608551,148.720688 295.184265,148.547241 
	C287.891632,145.565689 280.583252,142.622650 272.418488,139.323776 
	C272.418488,147.522141 272.379303,154.626816 272.443756,161.730576 
	C272.461700,163.708862 274.135284,164.472565 275.632080,165.201965 
	C282.953461,168.769897 290.240356,172.415359 297.644379,175.804077 
	C301.335846,177.493622 304.922821,179.637909 309.333435,180.165634 
	C311.114990,174.052856 312.830505,168.166656 314.702271,161.542099 
M233.137772,130.672852 
	C233.145706,133.993134 233.339645,137.326279 233.110794,140.630157 
	C232.867950,144.135574 234.218811,145.942383 237.517136,147.341019 
	C246.677673,151.225479 255.651871,155.549240 264.701080,159.696457 
	C265.863068,160.229019 266.934448,161.250031 268.890350,160.127518 
	C268.890350,154.145737 268.771973,147.865189 268.940155,141.592316 
	C269.024567,138.444702 267.732422,136.735962 264.886017,135.593750 
	C258.112030,132.875534 251.450974,129.876358 244.682877,127.142754 
	C241.223602,125.745560 237.873230,123.843590 234.095749,123.741669 
	C232.538620,125.751991 233.311920,127.813744 233.137772,130.672852 
M398.023285,178.110413 
	C403.433807,176.052246 408.957794,176.391830 414.683258,178.076202 
	C413.738129,174.005020 413.748352,173.846542 409.612976,173.579437 
	C395.668732,172.678772 381.786835,171.278931 368.045410,168.697693 
	C365.447052,168.209610 364.242004,169.059052 364.245087,171.707825 
	C364.254578,179.861725 364.228882,188.015686 364.240967,196.169571 
	C364.243317,197.761246 364.643433,199.202072 366.471466,199.598709 
	C371.763916,200.746994 376.956848,202.502258 383.240509,202.616318 
	C381.138885,196.999878 382.026764,192.114807 385.157318,187.661316 
	C388.218475,183.306488 392.358765,180.342621 398.023285,178.110413 
M96.397766,89.869133 
	C96.655724,92.916710 98.979218,92.903038 101.161095,93.060020 
	C116.262352,94.146530 131.343018,95.322655 146.346039,97.532677 
	C156.832474,99.077370 156.887314,98.729248 156.164261,87.998695 
	C156.145493,87.719925 155.829147,87.461220 155.656326,87.200325 
	C144.141861,88.055054 143.059280,87.707367 134.166992,79.035835 
	C132.785568,77.688713 131.585739,77.837868 130.129517,78.318825 
	C128.436981,78.877823 127.236160,79.778267 127.202339,81.843788 
	C127.172905,83.641129 127.982872,85.921562 125.420677,86.768196 
	C122.542839,85.489182 124.817490,82.057487 122.547211,80.729538 
	C120.063622,81.145065 120.063622,81.145065 116.081520,89.198616 
	C113.654976,88.362495 114.378624,85.851044 113.439957,84.303757 
	C112.168831,82.208466 109.502144,84.455940 108.053719,82.797157 
	C106.224678,78.220840 112.076317,79.774353 112.601349,76.964577 
	C112.356491,76.601128 112.138039,75.908524 111.819000,75.858582 
	C107.064049,75.114326 101.818962,73.820198 97.690163,76.120605 
	C94.551262,77.869476 96.800949,82.617340 96.363235,85.997688 
	C96.236008,86.980171 96.351318,87.994057 96.397766,89.869133 
M56.726208,92.304398 
	C67.832291,93.636772 79.051308,93.127975 90.051514,92.256584 
	C95.939865,91.790131 91.994453,84.763077 92.823647,80.798195 
	C93.278679,78.622429 93.710747,75.324104 89.772308,75.274361 
	C73.099068,75.063782 56.556198,76.871681 40.021965,78.711632 
	C38.132992,78.921837 36.380814,79.769302 36.534210,82.166893 
	C36.691368,84.623329 38.524605,84.925476 40.472633,84.997284 
	C46.575974,85.222267 51.769970,87.524414 56.726208,92.304398 
M171.474045,81.221024 
	C169.178421,80.864456 166.846573,80.658653 164.595184,80.117905 
	C160.687241,79.179268 159.485703,80.711060 159.764542,84.506126 
	C160.044006,88.309700 160.094864,92.162964 159.819397,95.963531 
	C159.616760,98.759216 160.765381,99.861679 163.249374,100.408081 
	C173.466461,102.655495 183.676178,104.938362 193.867722,107.298431 
	C196.524933,107.913765 197.632812,106.998146 197.624939,104.362877 
	C197.611526,99.873375 197.502136,95.377647 197.697708,90.896095 
	C197.853043,87.336494 196.199402,85.837883 192.875061,85.261063 
	C186.004898,84.069008 179.172638,82.658409 171.474045,81.221024 
M181.270462,107.325768 
	C175.743591,106.184792 170.177963,105.200684 164.703201,103.848686 
	C160.938232,102.918938 159.878616,104.430885 159.952530,107.859055 
	C160.027695,111.345604 160.195786,114.877953 159.745743,118.314629 
	C159.291962,121.779839 160.639557,123.015205 163.811569,123.746521 
	C171.412354,125.498901 178.945511,127.549301 186.490082,129.539566 
	C200.409531,133.211533 197.500931,132.347260 197.640869,121.040833 
	C197.782623,109.588593 198.707596,111.870262 188.837082,109.228050 
	C186.591202,108.626846 184.342148,108.037468 181.270462,107.325768 
M76.932350,72.306618 
	C80.425064,72.160248 83.916969,71.989525 87.410675,71.872993 
	C93.219505,71.679237 93.985222,70.499512 91.761765,64.735352 
	C83.376419,66.256111 76.437759,63.548573 71.040108,56.934467 
	C69.503304,55.051323 67.520470,55.333900 65.538948,55.539635 
	C48.784973,57.279160 48.781441,57.281830 37.605759,70.055550 
	C36.540604,71.273018 34.861706,72.433929 35.753914,74.316551 
	C36.665504,76.240067 38.624142,75.656342 40.219307,75.444023 
	C52.100582,73.862648 64.031418,72.896751 76.932350,72.306618 
M198.912018,145.232117 
	C196.215881,148.984909 192.240601,150.970581 186.838837,153.203445 
	C201.929779,158.071274 215.504379,163.457397 229.641174,169.403046 
	C229.641174,162.313309 229.622269,156.189941 229.652100,150.066788 
	C229.661667,148.100662 228.608444,146.987762 226.906525,146.363815 
	C219.735001,143.734680 212.567047,141.094879 205.371658,138.532333 
	C203.104050,137.724762 201.550705,138.390289 200.946701,140.974655 
	C200.651428,142.237976 199.865341,143.386581 198.912018,145.232117 
M370.478119,127.012856 
	C368.757263,127.901184 366.679901,128.149841 364.878876,130.326797 
	C380.792999,132.584671 396.313812,133.298050 411.906586,132.866104 
	C413.369537,132.825592 414.667206,132.129578 414.687622,130.551712 
	C414.776764,123.676659 414.725922,116.799797 414.725922,108.994324 
	C399.459625,115.191383 385.303345,120.937851 370.478119,127.012856 
M214.673004,105.947350 
	C215.389618,107.065910 216.455414,108.096092 216.764603,109.317764 
	C218.419937,115.858307 223.869598,116.160934 228.190140,117.246109 
	C233.408249,107.351830 244.778854,109.208328 252.108658,102.933701 
	C240.388748,98.170227 228.858185,94.214523 216.226974,91.460663 
	C217.081955,97.408173 219.964676,101.964775 218.121887,107.256386 
	C214.278656,99.598190 212.096909,90.721008 201.882996,88.056366 
	C201.446304,91.505684 202.779968,93.655075 204.402954,95.449028 
	C207.522827,98.897530 210.901962,102.111473 214.673004,105.947350 
M201.706512,133.347061 
	C210.724503,136.791534 219.742508,140.236023 228.879196,143.725830 
	C229.308777,142.208664 229.551926,141.737854 229.559158,141.263474 
	C229.622604,137.100449 229.665268,132.936859 229.673325,128.773331 
	C229.689072,120.648773 228.856277,119.805870 220.032150,119.090309 
	C217.777832,123.910706 219.477524,130.363358 214.315689,134.543671 
	C212.841644,131.994736 214.384308,130.044189 214.774704,128.101044 
	C216.855713,117.743324 215.628326,115.876579 205.498520,113.682693 
	C202.321274,112.994576 201.144318,114.000671 201.210922,117.102249 
	C201.321716,122.260887 201.345352,127.421394 201.706512,133.347061 
M234.598816,119.700981 
	C245.755386,124.223793 256.911957,128.746613 268.876129,133.596832 
	C268.876129,126.407982 268.925964,120.115005 268.861511,113.823204 
	C268.802185,108.032707 265.948395,106.053505 260.488464,108.099434 
	C253.477020,110.726761 246.492737,113.433784 239.566116,116.275551 
	C237.697479,117.042198 235.226898,116.934410 234.598816,119.700981 
M62.352398,107.388428 
	C61.936989,110.857925 63.580853,112.123817 66.945709,112.126137 
	C71.920898,112.129555 76.894600,112.502235 81.871216,112.593170 
	C93.400383,112.803825 93.275757,112.776215 93.031120,101.274483 
	C92.950325,97.475952 91.706291,95.878548 87.793144,95.985199 
	C80.158096,96.193275 72.514351,96.064392 64.875069,96.151047 
	C63.458946,96.167107 61.831062,95.801758 60.555290,97.605148 
	C60.860920,100.456650 62.594868,103.319519 62.352398,107.388428 
M536.767883,92.733826 
	C535.378662,84.131119 530.202393,78.685341 522.104736,76.274437 
	C515.408020,74.280663 510.052521,79.525856 511.594727,86.353981 
	C513.186890,93.403107 517.353882,98.671799 524.023071,101.593384 
	C531.387390,104.819496 536.341919,101.601768 536.767883,92.733826 
M251.057236,164.546875 
	C252.747955,162.789581 255.673203,162.655991 257.172974,159.727753 
	C249.505112,155.949860 242.027771,152.130402 233.094757,149.400665 
	C233.094757,154.452835 233.114075,158.573242 233.090759,162.693420 
	C233.041504,171.400299 235.945190,174.562439 245.532410,175.784943 
	C245.205582,171.304138 247.026978,167.736862 251.057236,164.546875 
M173.741272,146.001968 
	C173.591202,139.557770 178.333023,136.202362 182.917923,132.327225 
	C176.040359,129.337845 169.140060,128.308517 162.460632,126.565239 
	C160.232208,125.983643 159.694183,127.708504 159.747696,129.625046 
	C159.826233,132.437363 159.953781,135.254242 159.873779,138.063858 
	C159.671432,145.171326 159.593048,145.335709 166.749161,146.921829 
	C168.924789,147.404053 171.510437,150.227829 173.741272,146.001968 
M35.365730,40.910568 
	C33.474754,46.188221 31.109783,51.430099 33.384876,57.707912 
	C47.178104,46.312309 53.902042,31.709633 46.558868,24.471117 
	C41.544048,28.765863 38.566486,34.463696 35.365730,40.910568 
M34.642868,116.160202 
	C33.170784,116.522713 31.318407,115.547188 30.282389,117.202469 
	C30.322765,118.989258 32.714855,119.247391 32.351501,121.320976 
	C26.717035,122.664543 22.852055,113.577782 16.385578,118.601929 
	C19.332367,126.152054 25.394970,129.289276 32.858440,130.318924 
	C35.390884,130.668289 38.452168,131.211929 39.650986,127.893822 
	C40.880337,124.491211 38.083755,117.194443 34.642868,116.160202 
M386.918976,110.382629 
	C395.101593,107.028694 403.284210,103.674759 411.466858,100.320824 
	C407.917877,98.800156 404.548370,98.765953 401.529419,99.936935 
	C389.934021,104.434563 378.441132,109.197517 366.928406,113.906525 
	C364.872772,114.747337 363.621674,116.058464 365.484650,118.900528 
	C372.421387,116.139091 379.308899,113.397240 386.918976,110.382629 
M52.995922,105.570847 
	C51.252445,101.741623 48.352127,99.157982 44.385807,97.854279 
	C41.120594,96.781021 39.103081,97.773682 39.394707,101.526932 
	C39.573212,103.824287 39.973320,106.111092 40.386963,108.382042 
	C41.137672,112.503525 45.141460,113.986382 51.820690,112.526863 
	C56.513275,111.501450 53.340477,108.463860 52.995922,105.570847 
M36.576954,104.879082 
	C35.792446,102.792999 36.364555,100.223892 34.454662,98.537384 
	C30.209023,100.088631 27.519985,103.140106 26.615376,107.340904 
	C25.744680,111.384201 27.299486,113.228859 31.429050,113.051964 
	C37.380806,112.797020 37.380806,112.797020 36.576954,104.879082 
M21.352919,95.725174 
	C24.166258,93.186249 25.947998,89.526054 29.587887,87.904030 
	C33.398602,86.205887 33.576015,83.533134 32.044567,80.240486 
	C26.491657,80.152748 18.990667,87.512177 16.776077,95.119469 
	C17.818684,96.605011 19.209299,96.599182 21.352919,95.725174 
M47.390907,126.770157 
	C49.957947,124.870316 52.257553,122.716461 53.306389,119.601509 
	C53.913860,117.797363 54.301167,115.650673 51.524906,115.517677 
	C48.311607,115.363754 44.963860,114.707832 41.531414,116.444901 
	C42.087112,119.633072 42.722912,122.684006 43.126312,125.765366 
	C43.518921,128.764252 44.979446,128.338593 47.390907,126.770157 
M14.472163,101.190521 
	C12.795057,104.307289 13.223461,107.658554 13.551854,110.939735 
	C13.733484,112.754532 14.912389,113.918701 16.949108,113.851807 
	C19.110813,113.780800 19.737404,112.523590 19.704132,110.562889 
	C19.645683,107.118614 19.687803,103.672630 19.687803,100.504341 
	C17.701065,99.302750 16.358242,100.056908 14.472163,101.190521 
M201.846313,108.625427 
	C205.150330,110.798439 208.830551,111.667496 213.286697,112.241806 
	C211.300339,108.399887 208.483719,106.419128 205.387863,104.932152 
	C202.439163,103.515839 200.931366,104.583115 201.846313,108.625427 
M321.681183,125.586197 
	C320.290283,125.487099 318.864655,124.446426 317.447784,125.758896 
	C317.434357,127.642426 316.572784,129.538849 317.399872,131.520538 
	C320.630005,132.064468 322.352295,130.025757 323.753296,127.793282 
	C324.501129,126.601677 323.168121,126.193878 321.681183,125.586197 
z"/>
</svg>